<?xml version="1.0" encoding="UTF-8" standalone="no"?>
<svg
   width="1606"
   height="94"
   viewBox="0 0 1606 94"
   version="1.1"
   id="svg5"
   sodipodi:docname="title.svg"
   inkscape:version="1.2.2 (732a01da63, 2022-12-09)"
   xmlns:inkscape="http://www.inkscape.org/namespaces/inkscape"
   xmlns:sodipodi="http://sodipodi.sourceforge.net/DTD/sodipodi-0.dtd"
   xmlns="http://www.w3.org/2000/svg"
   xmlns:svg="http://www.w3.org/2000/svg">
  <defs
     id="defs9" />
  <sodipodi:namedview
     id="namedview7"
     pagecolor="#ffffff"
     bordercolor="#000000"
     borderopacity="0.25"
     inkscape:showpageshadow="2"
     inkscape:pageopacity="0.0"
     inkscape:pagecheckerboard="0"
     inkscape:deskcolor="#d1d1d1"
     showgrid="false"
     inkscape:zoom="1.3675427"
     inkscape:cx="357.21004"
     inkscape:cy="-15.35601"
     inkscape:window-width="2400"
     inkscape:window-height="1494"
     inkscape:window-x="-11"
     inkscape:window-y="-11"
     inkscape:window-maximized="1"
     inkscape:current-layer="text346" />
  <g
     aria-label="APERTURE LABORATORIES TERMINAL"
     id="text346"
     style="font-size:96px;font-family:'Share Tech Mono';-inkscape-font-specification:'Share Tech Mono';stroke-width:5">
    <path
       d="m 45.366726,63.607998 -3.744,16.992 h -8.544 l 16.224,-67.2 h 11.04 l 15.936,67.2 h -8.544 l -3.648,-16.992 z m 17.184,-7.2 -7.872,-36.672 -7.776,36.672 z"
       id="path483" />
    <path
       d="m 123.89481,39.319998 q 0,7.776 -4.128,11.52 -4.128,3.648 -12.192,3.648 h -9.983996 v 26.112 h -8.352 v -67.2 h 18.143996 q 8.16,0 12.288,3.648 4.224,3.552 4.224,11.328 z m -8.352,-11.808 q 0,-3.648 -1.728,-5.28 -1.632,-1.632 -5.28,-1.632 H 97.590814 v 26.688 h 10.943996 q 3.648,0 5.28,-1.632 1.728,-1.728 1.728,-5.376 z"
       id="path480" />
    <path
       d="m 174.3909,13.399998 v 7.008 h -23.712 v 21.984 h 21.312 v 7.008 h -21.312 v 24.192 h 23.712 v 7.008 h -32.064 v -67.2 z"
       id="path477" />
    <path
       d="m 199.35099,52.759998 v 27.84 h -8.352 v -67.2 h 18.048 q 8.16,0 12.288,3.648 4.224,3.552 4.224,11.328 v 9.216 q 0,10.848 -8.64,13.536 l 13.344,29.472 h -9.12 l -12.384,-27.84 z m 17.856,-25.248 q 0,-3.648 -1.728,-5.28 -1.632,-1.632 -5.28,-1.632 h -10.848 v 24.96 h 10.848 q 3.648,0 5.28,-1.632 1.728,-1.728 1.728,-5.376 z"
       id="path474" />
    <path
       d="m 257.81508,80.599998 v -59.904 h -15.264 v -7.296 h 38.88 v 7.296 h -15.264 v 59.904 z"
       id="path471" />
    <path
       d="m 332.31117,64.279998 q 0,8.16 -4.512,12.288 -4.416,4.032 -12.768,4.032 h -2.4 q -8.352,0 -12.864,-4.032 -4.416,-4.128 -4.416,-12.288 v -50.88 h 8.352 v 52.704 q 0,2.976 2.208,5.088 2.208,2.112 5.76,2.112 h 4.32 q 3.552,0 5.76,-2.112 2.208,-2.112 2.208,-5.088 v -52.704 h 8.352 z"
       id="path468" />
    <path
       d="m 354.87125,52.759998 v 27.84 h -8.352 v -67.2 h 18.048 q 8.16,0 12.288,3.648 4.224,3.552 4.224,11.328 v 9.216 q 0,10.848 -8.64,13.536 l 13.344,29.472 h -9.12 l -12.384,-27.84 z m 17.856,-25.248 q 0,-3.648 -1.728,-5.28 -1.632,-1.632 -5.28,-1.632 h -10.848 v 24.96 h 10.848 q 3.648,0 5.28,-1.632 1.728,-1.728 1.728,-5.376 z"
       id="path465" />
    <path
       d="m 433.59134,13.399998 v 7.008 h -23.712 v 21.984 h 21.312 v 7.008 h -21.312 v 24.192 h 23.712 v 7.008 h -32.064 v -67.2 z"
       id="path462" />
    <path
       d="m 514.71152,13.399998 v 59.904 h 21.408 v 7.296 h -29.76 v -67.2 z"
       id="path459" />
    <path
       d="m 563.76761,63.607998 -3.744,16.992 h -8.544 l 16.224,-67.2 h 11.04 l 15.936,67.2 h -8.544 l -3.648,-16.992 z m 17.184,-7.2 -7.872,-36.672 -7.776,36.672 z"
       id="path456" />
    <path
       d="m 642.67969,65.431998 q 0,8.256 -3.84,11.712 -3.744,3.456 -12.48,3.456 h -19.2 v -67.2 h 18.048 q 8.544,0 12.48,3.456 4.032,3.456 4.032,11.52 v 5.472 q 0,7.392 -5.28,11.136 6.24,3.456 6.24,11.808 z m -9.312,-37.92 q 0,-3.648 -1.728,-5.28 -1.632,-1.632 -5.28,-1.632 h -10.848 v 21.216 h 10.848 q 2.976,0 4.992,-1.92 2.016,-1.92 2.016,-5.088 z m 0.96,28.416 q 0,-3.168 -1.92,-4.992 -1.92,-1.92 -5.088,-1.92 h -11.808 v 24.384 h 11.712 q 3.648,0 5.376,-1.632 1.728,-1.728 1.728,-5.376 z"
       id="path453" />
    <path
       d="m 695.95978,64.279998 q 0,8.16 -4.512,12.288 -4.416,4.032 -12.768,4.032 h -3.84 q -8.352,0 -12.864,-4.032 -4.416,-4.128 -4.416,-12.288 v -34.56 q 0,-8.16 4.416,-12.192 4.512,-4.128 12.864,-4.128 h 3.84 q 8.352,0 12.768,4.128 4.512,4.032 4.512,12.192 z m -8.352,-36.384 q 0,-2.976 -2.208,-5.088 -2.208,-2.112 -5.76,-2.112 h -5.76 q -3.552,0 -5.76,2.112 -2.208,2.112 -2.208,5.088 v 38.208 q 0,2.976 2.208,5.088 2.208,2.112 5.76,2.112 h 5.76 q 3.552,0 5.76,-2.112 2.208,-2.112 2.208,-5.088 z"
       id="path450" />
    <path
       d="m 717.75187,52.759998 v 27.84 h -8.352 v -67.2 h 18.048 q 8.16,0 12.288,3.648 4.224,3.552 4.224,11.328 v 9.216 q 0,10.848 -8.64,13.536 l 13.344,29.472 h -9.12 l -12.384,-27.84 z m 17.856,-25.248 q 0,-3.648 -1.728,-5.28 -1.632,-1.632 -5.28,-1.632 h -10.848 v 24.96 h 10.848 q 3.648,0 5.28,-1.632 1.728,-1.728 1.728,-5.376 z"
       id="path447" />
    <path
       d="m 771.12796,63.607998 -3.744,16.992 h -8.544 l 16.224,-67.2 h 11.04 l 15.936,67.2 h -8.544 l -3.648,-16.992 z m 17.184,-7.2 -7.872,-36.672 -7.776,36.672 z"
       id="path444" />
    <path
       d="m 828.05604,80.599998 v -59.904 h -15.264 v -7.296 h 38.88 v 7.296 h -15.264 v 59.904 z"
       id="path441" />
    <path
       d="m 903.32013,64.279998 q 0,8.16 -4.512,12.288 -4.416,4.032 -12.768,4.032 h -3.84 q -8.352,0 -12.864,-4.032 -4.416,-4.128 -4.416,-12.288 v -34.56 q 0,-8.16 4.416,-12.192 4.512,-4.128 12.864,-4.128 h 3.84 q 8.352,0 12.768,4.128 4.512,4.032 4.512,12.192 z m -8.352,-36.384 q 0,-2.976 -2.208,-5.088 -2.208,-2.112 -5.76,-2.112 h -5.76 q -3.552,0 -5.76,2.112 -2.208,2.112 -2.208,5.088 v 38.208 q 0,2.976 2.208,5.088 2.208,2.112 5.76,2.112 h 5.76 q 3.552,0 5.76,-2.112 2.208,-2.112 2.208,-5.088 z"
       id="path438" />
    <path
       d="m 925.11222,52.759998 v 27.84 h -8.352 v -67.2 h 18.048 q 8.16,0 12.288,3.648 4.224,3.552 4.224,11.328 v 9.216 q 0,10.848 -8.64,13.536 l 13.344,29.472 h -9.12 l -12.384,-27.84 z m 17.856,-25.248 q 0,-3.648 -1.728,-5.28 -1.632,-1.632 -5.28,-1.632 h -10.848 v 24.96 h 10.848 q 3.648,0 5.28,-1.632 1.728,-1.728 1.728,-5.376 z"
       id="path435" />
    <path
       d="m 983.57631,73.591998 v -53.184 h -8.64 v -7.008 h 25.63199 v 7.008 h -8.63999 v 53.184 h 8.63999 v 7.008 h -25.63199 v -7.008 z"
       id="path432" />
    <path
       d="m 1055.6724,13.399998 v 7.008 h -23.712 v 21.984 h 21.312 v 7.008 h -21.312 v 24.192 h 23.712 v 7.008 h -32.064 v -67.2 z"
       id="path429" />
    <path
       d="m 1107.7045,64.279998 q 0,8.16 -4.512,12.288 -4.416,4.032 -12.768,4.032 h -13.632 v -7.296 h 14.592 q 3.552,0 5.76,-2.112 2.208,-2.112 2.208,-5.088 v -9.984 q 0,-2.88 -1.536,-4.608 -1.44,-1.824 -4.416,-1.824 h -2.88 q -7.104,0 -11.232,-4.128 -4.128,-4.224 -4.128,-12.192 v -3.648 q 0,-8.16 4.416,-12.192 4.512,-4.128 12.864,-4.128 h 13.728 v 7.296 h -14.688 q -3.552,0 -5.76,2.112 -2.208,2.112 -2.208,5.088 v 7.296 q 0,2.976 1.92,4.992 1.92,1.92 4.992,1.92 h 2.88 q 6.816,0 10.56,3.936 3.84,3.936 3.84,11.904 z"
       id="path426" />
    <path
       d="m 1190.9367,80.599998 v -59.904 h -15.264 v -7.296 h 38.88 v 7.296 h -15.264 v 59.904 z"
       id="path423" />
    <path
       d="m 1263.0327,13.399998 v 7.008 h -23.712 v 21.984 h 21.312 v 7.008 h -21.312 v 24.192 h 23.712 v 7.008 h -32.064 v -67.2 z"
       id="path420" />
    <path
       d="m 1287.9928,52.759998 v 27.84 h -8.352 v -67.2 h 18.048 q 8.16,0 12.288,3.648 4.224,3.552 4.224,11.328 v 9.216 q 0,10.848 -8.64,13.536 l 13.344,29.472 h -9.12 l -12.384,-27.84 z m 17.856,-25.248 q 0,-3.648 -1.728,-5.28 -1.632,-1.632 -5.28,-1.632 h -10.848 v 24.96 h 10.848 q 3.648,0 5.28,-1.632 1.728,-1.728 1.728,-5.376 z"
       id="path417" />
    <path
       d="m 1354.5209,58.039998 h -7.968 l -9.408,-37.728 v 60.288 h -7.296 v -67.2 h 13.344 l 7.68,34.368 7.776,-34.368 h 12.96 v 67.2 h -7.488 v -60.288 z"
       id="path414" />
    <path
       d="m 1398.297,73.591998 v -53.184 h -8.64 v -7.008 h 25.632 v 7.008 h -8.64 v 53.184 h 8.64 v 7.008 h -25.632 v -7.008 z"
       id="path411" />
    <path
       d="m 1443.8011,80.599998 h -7.776 v -67.2 h 13.632 l 15.168,60.096 v -60.096 h 7.776 v 67.2 h -13.728 l -15.072,-60.096 z"
       id="path408" />
    <path
       d="m 1496.8892,63.607998 -3.744,16.992 h -8.544 l 16.224,-67.2 h 11.04 l 15.936,67.2 h -8.544 l -3.648,-16.992 z m 17.184,-7.2 -7.872,-36.672 -7.776,36.672 z"
       id="path405" />
    <path
       d="m 1551.5133,13.399998 v 59.904 h 21.408 v 7.296 h -29.76 v -67.2 z"
       id="path402" />
  </g>
</svg>
